# xmcd CD database file
#
# Track frame offsets:
#	150
#	21456
#	38563
#
# Disc length: 747 seconds
#
# Revision: 0
# Processed by: cddbd v1.5.1PL0 Copyright (c) Steve Scherf et al.
# Submitted via: CDex 1.51
#
DISCID=1c02e903
DTITLE=LOVE PSYCHEDELICO - LADY MADONNA〜憂鬱なるスパイダー〜
DYEAR=1900
DGENRE=ロック (日本)
TTITLE0=LADY MADONNA〜憂鬱なるスパイダー〜
TTITLE1=LOW
TTITLE2=FLY
EXTD=
EXTT0=
EXTT1=
EXTT2=
PLAYORDER=
